<?xml version="1.0" encoding="utf-8"?>
<?xml-stylesheet type="text/xsl" href="rss1.xsl"?>
<rss version="2.0" xmlns:atom="http://www.w3.org/2005/Atom" xmlns:content="http://purl.org/rss/1.0/modules/content/" xmlns:dc="http://purl.org/dc/elements/1.1/" xmlns:media="http://search.yahoo.com/mrss/">
<channel>
 <title>Getty</title>
 <link>http://www.gettyimg.com/</link>
 <atom:link href="http://www.gettyimg.com/" rel="self" type="application/rss+xml" />

 
                <item>
                <title><![CDATA[【Cinema Center】SERIES - Fatherhood.S01.480p.AMZN.WEB-DL.DDP2.0.H.264-Samuel]]></title>
                <link><![CDATA[https://sharemania.us/threads/fatherhood-s01-480p-amzn-web-dl-ddp2-0-h-264-samuel.220019/]]></link>
                <description><![CDATA[<article>
<blockquote class="messageText SelectQuoteContainer ugc baseHtml">
<div style="text-align: center"><b><span style="font-size: 26px">Fatherhood</span><br>
<span style="font-size: 22px">Season 1</span></b><br>
<img src="https://i.imgur.com/PlHodgF.jpg" class="bbCodeImage LbImage" alt="[​IMG]" data-url="https://i.imgur.com/PlHodgF.jpg" style=""><br>
<br>
<img src="https://i.imgur.com/NvDTQjE.png" class="bbCodeImage LbImage" alt="[​IMG]" data-url="https://i.imgur.com/NvDTQjE.png" style=""> 5.3 • 2005 • 12 episodes • <img src="https://i.imgur.com/5869V2n.png" class="bbCodeImage LbImage" alt="[​IMG]" data-url="https://i.imgur.com/5869V2n.png" style=""> • <img src="https://i.imgur.com/rzHe4tz.png" class="bbCodeImage LbImage" alt="[​IMG]" data-url="https://i.imgur.com/rzHe4tz.png" style=""><br>
<br>
<div class="bbCodeBlock bbCodeQuote">
<aside>
<blockquote class="quoteContainer"><div class="quote"><b><span style="font-size: 15px"><span style="font-family: 'Arial'">Description</span></span></b><br>
The hit animated show based on the nationwide #1 bestselling book by Bill Cosby.</div><div class="quoteExpand">Click to expand...</div></blockquote>
</aside>
</div>
<div class="bbCodeBlock bbCodeQuote">
<aside>
<blockquote class="quoteContainer"><div class="quote"><span style="font-family: 'Arial'"><span style="font-size: 15px"><b>Details</b></span></span><br>
<b>Genres:</b> Comedy · Animation · Kids</div><div class="quoteExpand">Click to expand...</div></blockquote>
</aside>
</div>
<div class="bbCodeBlock bbCodeQuote">
<aside>
<blockquote class="quoteContainer"><div class="quote"><b><span style="font-size: 15px"><span style="font-family: 'Arial'">More Details</span></span></b><br>
<b>Audio languages:</b> English<br>
<b>Subtitles:</b> English [CC]<br>
<b>Directors:</b> Jamie Mitchell<br>
<b>Producers:</b> Jamie Mitchell, Bill Cosby, Stipe Blazevic, Charles Kipps, Monique Beatty, David Brokaw, Mike Milligan</div><div class="quoteExpand">Click to expand...</div></blockquote>
</aside>
</div>
<div class="bbCodeBlock bbCodeQuote">
<aside>
<blockquote class="quoteContainer"><div class="quote"><b><span style="font-size: 15px"><span style="font-family: 'Arial'">Source</span></span></b><br>
<img src="https://i.imgur.com/UquWuUD.png" class="bbCodeImage LbImage" alt="[​IMG]" data-url="https://i.imgur.com/UquWuUD.png" style=""></div><div class="quoteExpand">Click to expand...</div></blockquote>
</aside>
</div>
<div class="bbCodeBlock bbCodeQuote">
<aside>
<blockquote class="quoteContainer"><div class="quote"><b><span style="font-size: 15px">Release Name</span></b><br>
Fatherhood.S01.480p.AMZN.WEB-DL.DDP2.0.H.264-Samuel</div><div class="quoteExpand">Click to expand...</div></blockquote>
</aside>
</div>
<div class="ToggleTriggerAnchor bbCodeSpoilerContainer">
<button type="button" class="button bbCodeSpoilerButton ToggleTrigger Tooltip JsOnly" data-target="> .SpoilerTarget"><span>Spoiler: <span class="SpoilerTitle">Media Information</span></span></button>
<div class="SpoilerTarget bbCodeSpoilerText"><span style="text-decoration: underline"><b>Episode 1: Am I Still Grounded?</b></span><br>
General<br>
Complete name : Fatherhood.S01E01.Am.I.Still.Grounded.480p.AMZN.WEB-DL.DDP2.0.H.264-Samuel.mkv<br>
Format : Matroska<br>
Format version : Version 4<br>
File size : 320 MiB<br>
Duration : 20 min 11 s<br>
Overall bit rate : 2 218 kb/s<br>
Frame rate : 29.970 FPS<br>
Encoded date : 2022-07-30 17:29:09 UTC<br>
Writing application : mkvmerge v69.0.0 ('Day And Age') 64-bit<br>
Writing library : libebml v1.4.2 + libmatroska v1.6.4<br>
<br>
Video<br>
ID : 1<br>
Format : AVC<br>
Format/Info : Advanced Video Codec<br>
Format profile : Main@L3<br>
Format settings : CABAC / 4 Ref Frames<br>
Format settings, CABAC : Yes<br>
Format settings, Reference frames : 4 frames<br>
Codec ID : V_MPEG4/ISO/AVC<br>
Duration : 20 min 11 s<br>
Bit rate mode : Constant<br>
Bit rate : 2 000 kb/s<br>
Width : 640 pixels<br>
Height : 480 pixels<br>
Display aspect ratio : 4:3<br>
Frame rate mode : Constant<br>
Frame rate : 29.970 (30000/1001) FPS<br>
Color space : YUV<br>
Chroma subsampling : 4:2:0<br>
Bit depth : 8 bits<br>
Scan type : Progressive<br>
Bits/(Pixel*Frame) : 0.217<br>
Stream size : 288 MiB (90%)<br>
Default : Yes<br>
Forced : No<br>
Color range : Limited<br>
<br>
Audio<br>
ID : 2<br>
Format : E-AC-3<br>
Format/Info : Enhanced AC-3<br>
Commercial name : Dolby Digital Plus<br>
Codec ID : A_EAC3<br>
Duration : 20 min 11 s<br>
Bit rate mode : Constant<br>
Bit rate : 224 kb/s<br>
Channel(s) : 2 channels<br>
Channel layout : L R<br>
Sampling rate : 48.0 kHz<br>
Frame rate : 31.250 FPS (1536 SPF)<br>
Compression mode : Lossy<br>
Stream size : 32.4 MiB (10%)<br>
Language : English<br>
Service kind : Complete Main<br>
Default : Yes<br>
Forced : No<br>
<br>
Text<br>
ID : 3<br>
Format : UTF-8<br>
Codec ID : S_TEXT/UTF8<br>
Codec ID/Info : UTF-8 Plain Text<br>
Duration : 19 min 20 s<br>
Bit rate : 88 b/s<br>
Frame rate : 0.370 FPS<br>
Count of elements : 430<br>
Stream size : 12.6 KiB (0%)<br>
Language : English<br>
Default : No<br>
Forced : No<br>
<br>
<span style="text-decoration: underline"><b>Episode 2: It's Your Birthday</b></span><br>
General<br>
Complete name : Fatherhood.S01E02.Its.Your.Birthday.480p.AMZN.WEB-DL.DDP2.0.H.264-Samuel.mkv<br>
Format : Matroska<br>
Format version : Version 4<br>
File size : 321 MiB<br>
Duration : 20 min 31 s<br>
Overall bit rate : 2 183 kb/s<br>
Frame rate : 29.970 FPS<br>
Encoded date : 2022-07-30 17:29:50 UTC<br>
Writing application : mkvmerge v69.0.0 ('Day And Age') 64-bit<br>
Writing library  : libebml v1.4.2 + libmatroska v1.6.4<br>
<br>
Video<br>
ID : 1<br>
Format : AVC<br>
Format/Info : Advanced Video Codec<br>
Format profile : Main@L3<br>
Format settings : CABAC / 4 Ref Frames<br>
Format settings, CABAC : Yes<br>
Format settings, Reference frames : 4 frames<br>
Codec ID : V_MPEG4/ISO/AVC<br>
Duration : 20 min 31 s<br>
Bit rate mode : Constant<br>
Bit rate : 2 000 kb/s<br>
Width : 640 pixels<br>
Height : 480 pixels<br>
Display aspect ratio : 4:3<br>
Frame rate mode : Constant<br>
Frame rate : 29.970 (30000/1001) FPS<br>
Color space : YUV<br>
Chroma subsampling : 4:2:0<br>
Bit depth : 8 bits<br>
Scan type : Progressive<br>
Bits/(Pixel*Frame) : 0.217<br>
Stream size : 287 MiB (90%)<br>
Default : Yes<br>
Forced : No<br>
Color range : Limited<br>
<br>
Audio<br>
ID : 2<br>
Format : E-AC-3<br>
Format/Info : Enhanced AC-3<br>
Commercial name : Dolby Digital Plus<br>
Codec ID : A_EAC3<br>
Duration : 20 min 31 s<br>
Bit rate mode : Constant<br>
Bit rate : 224 kb/s<br>
Channel(s) : 2 channels<br>
Channel layout : L R<br>
Sampling rate : 48.0 kHz<br>
Frame rate : 31.250 FPS (1536 SPF)<br>
Compression mode : Lossy<br>
Stream size : 32.9 MiB (10%)<br>
Language : English<br>
Service kind : Complete Main<br>
Default : Yes<br>
Forced : No<br>
<br>
Text<br>
ID : 3<br>
Format : UTF-8<br>
Codec ID : S_TEXT/UTF8<br>
Codec ID/Info : UTF-8 Plain Text<br>
Duration : 19 min 41 s<br>
Bit rate : 89 b/s<br>
Frame rate : 0.397 FPS<br>
Count of elements : 469<br>
Stream size : 12.9 KiB (0%)<br>
Language : English<br>
Default : No<br>
Forced : No<br>
<br>
<span style="text-decoration: underline"><b>Episode 3: Take My Daughter... Please</b></span><br>
General<br>
Complete name : Fatherhood.S01E03.Take.My.Daughter....Please.480p.AMZN.WEB-DL.DDP2.0.H.264-Samuel.mkv<br>
Format : Matroska<br>
Format version : Version 4<br>
File size : 322 MiB<br>
Duration : 20 min 35 s<br>
Overall bit rate : 2 184 kb/s<br>
Frame rate : 29.970 FPS<br>
Encoded date : 2022-07-30 17:30:37 UTC<br>
Writing application : mkvmerge v69.0.0 ('Day And Age') 64-bit<br>
Writing library : libebml v1.4.2 + libmatroska v1.6.4<br>
<br>
Video<br>
ID : 1<br>
Format : AVC<br>
Format/Info : Advanced Video Codec<br>
Format profile : Main@L3<br>
Format settings : CABAC / 4 Ref Frames<br>
Format settings, CABAC : Yes<br>
Format settings, Reference frames : 4 frames<br>
Codec ID : V_MPEG4/ISO/AVC<br>
Duration : 20 min 35 s<br>
Bit rate mode : Constant<br>
Bit rate : 2 000 kb/s<br>
Width : 640 pixels<br>
Height : 480 pixels<br>
Display aspect ratio : 4:3<br>
Frame rate mode : Constant<br>
Frame rate : 29.970 (30000/1001) FPS<br>
Color space : YUV<br>
Chroma subsampling : 4:2:0<br>
Bit depth : 8 bits<br>
Scan type : Progressive<br>
Bits/(Pixel*Frame) : 0.217<br>
Stream size : 288 MiB (90%)<br>
Default : Yes<br>
Forced : No<br>
Color range : Limited<br>
<br>
Audio<br>
ID : 2<br>
Format : E-AC-3<br>
Format/Info : Enhanced AC-3<br>
Commercial name : Dolby Digital Plus<br>
Codec ID : A_EAC3<br>
Duration : 20 min 35 s<br>
Bit rate mode : Constant<br>
Bit rate : 224 kb/s<br>
Channel(s) : 2 channels<br>
Channel layout : L R<br>
Sampling rate : 48.0 kHz<br>
Frame rate : 31.250 FPS (1536 SPF)<br>
Compression mode : Lossy<br>
Stream size : 33.0 MiB (10%)<br>
Language : English<br>
Service kind : Complete Main<br>
Default : Yes<br>
Forced : No<br>
<br>
Text<br>
ID : 3<br>
Format : UTF-8<br>
Codec ID : S_TEXT/UTF8<br>
Codec ID/Info : UTF-8 Plain Text<br>
Duration : 20 min 8 s<br>
Bit rate : 107 b/s<br>
Frame rate : 0.433 FPS<br>
Count of elements : 523<br>
Stream size : 15.8 KiB (0%)<br>
Language : English<br>
Default : No<br>
Forced : No<br>
<br>
<span style="text-decoration: underline"><b>Episode 4: Dog Day Afternoon</b></span><br>
General<br>
Complete name : Fatherhood.S01E04.Dog.Day.Afternoon.480p.AMZN.WEB-DL.DDP2.0.H.264-Samuel.mkv<br>
Format : Matroska<br>
Format version : Version 4<br>
File size : 315 MiB<br>
Duration : 20 min 12 s<br>
Overall bit rate : 2 183 kb/s<br>
Frame rate : 29.970 FPS<br>
Encoded date : 2022-07-30 17:31:25 UTC<br>
Writing application : mkvmerge v69.0.0 ('Day And Age') 64-bit<br>
Writing library : libebml v1.4.2 + libmatroska v1.6.4<br>
<br>
Video<br>
ID : 1<br>
Format : AVC<br>
Format/Info : Advanced Video Codec<br>
Format profile : Main@L3<br>
Format settings : CABAC / 4 Ref Frames<br>
Format settings, CABAC : Yes<br>
Format settings, Reference frames : 4 frames<br>
Codec ID : V_MPEG4/ISO/AVC<br>
Duration : 20 min 12 s<br>
Bit rate mode : Constant<br>
Bit rate : 2 000 kb/s<br>
Width : 640 pixels<br>
Height : 480 pixels<br>
Display aspect ratio : 4:3<br>
Frame rate mode : Constant<br>
Frame rate : 29.970 (30000/1001) FPS<br>
Color space : YUV<br>
Chroma subsampling : 4:2:0<br>
Bit depth : 8 bits<br>
Scan type : Progressive<br>
Bits/(Pixel*Frame) : 0.217<br>
Stream size : 283 MiB (90%)<br>
Default : Yes<br>
Forced : No<br>
Color range : Limited<br>
<br>
Audio<br>
ID : 2<br>
Format : E-AC-3<br>
Format/Info : Enhanced AC-3<br>
Commercial name : Dolby Digital Plus<br>
Codec ID : A_EAC3<br>
Duration : 20 min 12 s<br>
Bit rate mode : Constant<br>
Bit rate : 224 kb/s<br>
Channel(s) : 2 channels<br>
Channel layout : L R<br>
Sampling rate : 48.0 kHz<br>
Frame rate : 31.250 FPS (1536 SPF)<br>
Compression mode : Lossy<br>
Stream size : 32.4 MiB (10%)<br>
Language : English<br>
Service kind : Complete Main<br>
Default : Yes<br>
Forced : No<br>
<br>
Text<br>
ID : 3<br>
Format : UTF-8<br>
Codec ID : S_TEXT/UTF8<br>
Codec ID/Info : UTF-8 Plain Text<br>
Duration : 19 min 22 s<br>
Bit rate : 77 b/s<br>
Frame rate : 0.388 FPS<br>
Count of elements : 451<br>
Stream size : 11.0 KiB (0%)<br>
Language : English<br>
Default : No<br>
Forced : No<br>
<br>
<span style="text-decoration: underline"><b>Episode 5: Love Me Due</b></span><br>
General<br>
Complete name : Fatherhood.S01E05.Love.Me.Due.480p.AMZN.WEB-DL.DDP2.0.H.264-Samuel.mkv<br>
Format : Matroska<br>
Format version : Version 4<br>
File size : 332 MiB<br>
Duration : 21 min 12 s<br>
Overall bit rate : 2 191 kb/s<br>
Frame rate : 29.970 FPS<br>
Encoded date : 2022-07-30 17:32:14 UTC<br>
Writing application : mkvmerge v69.0.0 ('Day And Age') 64-bit<br>
Writing library : libebml v1.4.2 + libmatroska v1.6.4<br>
<br>
Video<br>
ID : 1<br>
Format : AVC<br>
Format/Info : Advanced Video Codec<br>
Format profile : Main@L3<br>
Format settings : CABAC / 4 Ref Frames<br>
Format settings, CABAC : Yes<br>
Format settings, Reference frames : 4 frames<br>
Codec ID : V_MPEG4/ISO/AVC<br>
Duration : 21 min 12 s<br>
Bit rate mode : Constant<br>
Bit rate : 2 000 kb/s<br>
Width : 640 pixels<br>
Height : 480 pixels<br>
Display aspect ratio : 4:3<br>
Frame rate mode : Constant<br>
Frame rate : 29.970 (30000/1001) FPS<br>
Color space : YUV<br>
Chroma subsampling : 4:2:0<br>
Bit depth : 8 bits<br>
Scan type : Progressive<br>
Bits/(Pixel*Frame) : 0.217<br>
Stream size : 298 MiB (90%)<br>
Default : Yes<br>
Forced : No<br>
Color range : Limited<br>
<br>
Audio<br>
ID : 2<br>
Format : E-AC-3<br>
Format/Info : Enhanced AC-3<br>
Commercial name : Dolby Digital Plus<br>
Codec ID : A_EAC3<br>
Duration : 21 min 12 s<br>
Bit rate mode : Constant<br>
Bit rate : 224 kb/s<br>
Channel(s) : 2 channels<br>
Channel layout : L R<br>
Sampling rate : 48.0 kHz<br>
Frame rate : 31.250 FPS (1536 SPF)<br>
Compression mode : Lossy<br>
Stream size : 34.0 MiB (10%)<br>
Language : English<br>
Service kind : Complete Main<br>
Default : Yes<br>
Forced : No<br>
<br>
Text<br>
ID : 3<br>
Format : UTF-8<br>
Codec ID : S_TEXT/UTF8<br>
Codec ID/Info : UTF-8 Plain Text<br>
Duration : 20 min 45 s<br>
Bit rate : 103 b/s<br>
Frame rate : 0.413 FPS<br>
Count of elements : 514<br>
Stream size : 15.8 KiB (0%)<br>
Language : English<br>
Default : No<br>
Forced : No<br>
<br>
<span style="text-decoration: underline"><b>Episode 6: The Lyin' King</b></span><br>
General<br>
Complete name : Fatherhood.S01E06.The.Lyin.King.480p.AMZN.WEB-DL.DDP2.0.H.264-Samuel.mkv<br>
Format : Matroska<br>
Format version : Version 4<br>
File size : 329 MiB<br>
Duration : 21 min 3 s<br>
Overall bit rate : 2 187 kb/s<br>
Frame rate : 29.970 FPS<br>
Encoded date : 2022-07-30 17:33:01 UTC<br>
Writing application : mkvmerge v69.0.0 ('Day And Age') 64-bit<br>
Writing library : libebml v1.4.2 + libmatroska v1.6.4<br>
<br>
Video<br>
ID : 1<br>
Format : AVC<br>
Format/Info : Advanced Video Codec<br>
Format profile : Main@L3<br>
Format settings : CABAC / 4 Ref Frames<br>
Format settings, CABAC : Yes<br>
Format settings, Reference frames : 4 frames<br>
Codec ID : V_MPEG4/ISO/AVC<br>
Duration : 21 min 3 s<br>
Bit rate mode : Constant<br>
Bit rate : 2 000 kb/s<br>
Width : 640 pixels<br>
Height : 480 pixels<br>
Display aspect ratio : 4:3<br>
Frame rate mode : Constant<br>
Frame rate : 29.970 (30000/1001) FPS<br>
Color space : YUV<br>
Chroma subsampling : 4:2:0<br>
Bit depth : 8 bits<br>
Scan type : Progressive<br>
Bits/(Pixel*Frame) : 0.217<br>
Stream size : 295 MiB (90%)<br>
Default : Yes<br>
Forced : No<br>
Color range : Limited<br>
<br>
Audio<br>
ID : 2<br>
Format : E-AC-3<br>
Format/Info : Enhanced AC-3<br>
Commercial name : Dolby Digital Plus<br>
Codec ID : A_EAC3<br>
Duration : 21 min 3 s<br>
Bit rate mode : Constant<br>
Bit rate : 224 kb/s<br>
Channel(s) : 2 channels<br>
Channel layout : L R<br>
Sampling rate : 48.0 kHz<br>
Frame rate : 31.250 FPS (1536 SPF)<br>
Compression mode : Lossy<br>
Stream size : 33.7 MiB (10%)<br>
Language : English<br>
Service kind : Complete Main<br>
Default : Yes<br>
Forced : No<br>
<br>
Text<br>
ID : 3<br>
Format : UTF-8<br>
Codec ID : S_TEXT/UTF8<br>
Codec ID/Info : UTF-8 Plain Text<br>
Duration : 20 min 35 s<br>
Bit rate : 100 b/s<br>
Frame rate : 0.384 FPS<br>
Count of elements : 474<br>
Stream size : 15.1 KiB (0%)<br>
Language : English<br>
Default : No<br>
Forced : No<br>
<br>
<span style="text-decoration: underline"><b>Episode 7: It's A Dad, Dad World</b></span><br>
General<br>
Complete name : Fatherhood.S01E07.Its.A.Dad.Dad.World.480p.AMZN.WEB-DL.DDP2.0.H.264-Samuel.mkv<br>
Format : Matroska<br>
Format version : Version 4<br>
File size : 317 MiB<br>
Duration : 20 min 17 s<br>
Overall bit rate : 2 186 kb/s<br>
Frame rate : 29.970 FPS<br>
Encoded date : 2022-07-30 17:33:50 UTC<br>
Writing application  : mkvmerge v69.0.0 ('Day And Age') 64-bit<br>
Writing library : libebml v1.4.2 + libmatroska v1.6.4<br>
<br>
Video<br>
ID : 1<br>
Format : AVC<br>
Format/Info : Advanced Video Codec<br>
Format profile : Main@L3<br>
Format settings : CABAC / 4 Ref Frames<br>
Format settings, CABAC : Yes<br>
Format settings, Reference frames : 4 frames<br>
Codec ID : V_MPEG4/ISO/AVC<br>
Duration : 20 min 17 s<br>
Bit rate mode : Constant<br>
Bit rate : 2 000 kb/s<br>
Width : 640 pixels<br>
Height : 480 pixels<br>
Display aspect ratio : 4:3<br>
Frame rate mode : Constant<br>
Frame rate : 29.970 (30000/1001) FPS<br>
Color space : YUV<br>
Chroma subsampling : 4:2:0<br>
Bit depth : 8 bits<br>
Scan type : Progressive<br>
Bits/(Pixel*Frame) : 0.217<br>
Stream size : 284 MiB (90%)<br>
Default : Yes<br>
Forced : No<br>
Color range : Limited<br>
<br>
Audio<br>
ID : 2<br>
Format : E-AC-3<br>
Format/Info : Enhanced AC-3<br>
Commercial name : Dolby Digital Plus<br>
Codec ID : A_EAC3<br>
Duration : 20 min 17 s<br>
Bit rate mode : Constant<br>
Bit rate : 224 kb/s<br>
Channel(s) : 2 channels<br>
Channel layout : L R<br>
Sampling rate : 48.0 kHz<br>
Frame rate : 31.250 FPS (1536 SPF)<br>
Compression mode : Lossy<br>
Stream size : 32.5 MiB (10%)<br>
Language : English<br>
Service kind : Complete Main<br>
Default : Yes<br>
Forced : No<br>
<br>
Text<br>
ID : 3<br>
Format : UTF-8<br>
Codec ID : S_TEXT/UTF8<br>
Codec ID/Info : UTF-8 Plain Text<br>
Duration : 19 min 34 s<br>
Bit rate : 101 b/s<br>
Frame rate : 0.429 FPS<br>
Count of elements : 504<br>
Stream size : 14.5 KiB (0%)<br>
Language : English<br>
Default : No<br>
Forced : No<br>
<br>
<span style="text-decoration: underline"><b>Episode 8: Privacy?</b></span><br>
General<br>
Complete name : Fatherhood.S01E08.Privacy.480p.AMZN.WEB-DL.DDP2.0.H.264-Samuel.mkv<br>
Format : Matroska<br>
Format version : Version 4<br>
File size : 325 MiB<br>
Duration : 20 min 42 s<br>
Overall bit rate : 2 194 kb/s<br>
Frame rate : 29.970 FPS<br>
Encoded date : 2022-07-30 17:34:41 UTC<br>
Writing application  : mkvmerge v69.0.0 ('Day And Age') 64-bit<br>
Writing library : libebml v1.4.2 + libmatroska v1.6.4<br>
<br>
Video<br>
ID : 1<br>
Format : AVC<br>
Format/Info : Advanced Video Codec<br>
Format profile : Main@L3<br>
Format settings : CABAC / 4 Ref Frames<br>
Format settings, CABAC : Yes<br>
Format settings, Reference frames : 4 frames<br>
Codec ID : V_MPEG4/ISO/AVC<br>
Duration : 20 min 42 s<br>
Bit rate mode : Constant<br>
Bit rate : 2 000 kb/s<br>
Width : 640 pixels<br>
Height : 480 pixels<br>
Display aspect ratio : 4:3<br>
Frame rate mode : Constant<br>
Frame rate : 29.970 (30000/1001) FPS<br>
Color space : YUV<br>
Chroma subsampling : 4:2:0<br>
Bit depth : 8 bits<br>
Scan type : Progressive<br>
Bits/(Pixel*Frame) : 0.217<br>
Stream size : 292 MiB (90%)<br>
Default : Yes<br>
Forced : No<br>
Color range : Limited<br>
<br>
Audio<br>
ID : 2<br>
Format : E-AC-3<br>
Format/Info : Enhanced AC-3<br>
Commercial name : Dolby Digital Plus<br>
Codec ID : A_EAC3<br>
Duration : 20 min 42 s<br>
Bit rate mode : Constant<br>
Bit rate : 224 kb/s<br>
Channel(s) : 2 channels<br>
Channel layout : L R<br>
Sampling rate : 48.0 kHz<br>
Frame rate : 31.250 FPS (1536 SPF)<br>
Compression mode : Lossy<br>
Stream size : 33.2 MiB (10%)<br>
Language : English<br>
Service kind : Complete Main<br>
Default : Yes<br>
Forced : No<br>
<br>
Text<br>
ID : 3<br>
Format : UTF-8<br>
Codec ID : S_TEXT/UTF8<br>
Codec ID/Info : UTF-8 Plain Text<br>
Duration : 20 min 21 s<br>
Bit rate : 90 b/s<br>
Frame rate : 0.412 FPS<br>
Count of elements : 503<br>
Stream size : 13.5 KiB (0%)<br>
Language : English<br>
Default : No<br>
Forced : No<br>
<br>
<span style="text-decoration: underline"><b>Episode 9: Won't You Be My Neighbor?</b></span><br>
General<br>
Complete name : Fatherhood.S01E09.Wont.You.Be.My.Neighbor.480p.AMZN.WEB-DL.DDP2.0.H.264-Samuel.mkv<br>
Format : Matroska<br>
Format version : Version 4<br>
File size : 270 MiB<br>
Duration : 20 min 12 s<br>
Overall bit rate : 1 868 kb/s<br>
Frame rate : 29.970 FPS<br>
Encoded date : 2022-07-30 17:35:30 UTC<br>
Writing application : mkvmerge v69.0.0 ('Day And Age') 64-bit<br>
Writing library : libebml v1.4.2 + libmatroska v1.6.4<br>
<br>
Video<br>
ID : 1<br>
Format : AVC<br>
Format/Info : Advanced Video Codec<br>
Format profile : Main@L3<br>
Format settings : CABAC / 4 Ref Frames<br>
Format settings, CABAC : Yes<br>
Format settings, Reference frames : 4 frames<br>
Codec ID : V_MPEG4/ISO/AVC<br>
Duration : 20 min 12 s<br>
Bit rate mode : Constant<br>
Bit rate : 1 642 kb/s<br>
Nominal bit rate : 2 000 kb/s<br>
Width : 640 pixels<br>
Height : 480 pixels<br>
Display aspect ratio : 4:3<br>
Frame rate mode : Constant<br>
Frame rate : 29.970 (30000/1001) FPS<br>
Color space : YUV<br>
Chroma subsampling : 4:2:0<br>
Bit depth : 8 bits<br>
Scan type : Progressive<br>
Bits/(Pixel*Frame) : 0.178<br>
Stream size : 237 MiB (88%)<br>
Default : Yes<br>
Forced : No<br>
Color range : Limited<br>
Color primaries : BT.709<br>
Transfer characteristics : BT.709<br>
Matrix coefficients : BT.709<br>
<br>
Audio<br>
ID : 2<br>
Format : E-AC-3<br>
Format/Info : Enhanced AC-3<br>
Commercial name : Dolby Digital Plus<br>
Codec ID : A_EAC3<br>
Duration : 20 min 12 s<br>
Bit rate mode : Constant<br>
Bit rate : 224 kb/s<br>
Channel(s) : 2 channels<br>
Channel layout : L R<br>
Sampling rate : 48.0 kHz<br>
Frame rate : 31.250 FPS (1536 SPF)<br>
Compression mode : Lossy<br>
Stream size : 32.4 MiB (12%)<br>
Language : English<br>
Service kind : Complete Main<br>
Default : Yes<br>
Forced : No<br>
<br>
Text<br>
ID : 3<br>
Format : UTF-8<br>
Codec ID : S_TEXT/UTF8<br>
Codec ID/Info : UTF-8 Plain Text<br>
Duration : 19 min 18 s<br>
Bit rate : 94 b/s<br>
Frame rate : 0.389 FPS<br>
Count of elements : 451<br>
Stream size : 13.4 KiB (0%)<br>
Title : SDH<br>
Language : English<br>
Default : No<br>
Forced : No<br>
<br>
<span style="text-decoration: underline"><b>Episode 10: Family Table</b></span><br>
General<br>
Complete name : Fatherhood.S01E10.Family.Table.480p.AMZN.WEB-DL.DDP2.0.H.264-Samuel.mkv<br>
Format : Matroska<br>
Format version : Version 4<br>
File size  : 316 MiB<br>
Duration : 20 min 12 s<br>
Overall bit rate : 2 186 kb/s<br>
Frame rate : 29.970 FPS<br>
Encoded date : 2022-07-30 17:36:17 UTC<br>
Writing application : mkvmerge v69.0.0 ('Day And Age') 64-bit<br>
Writing library : libebml v1.4.2 + libmatroska v1.6.4<br>
<br>
Video<br>
ID : 1<br>
Format : AVC<br>
Format/Info : Advanced Video Codec<br>
Format profile : Main@L3<br>
Format settings : CABAC / 4 Ref Frames<br>
Format settings, CABAC : Yes<br>
Format settings, Reference frames : 4 frames<br>
Codec ID : V_MPEG4/ISO/AVC<br>
Duration : 20 min 12 s<br>
Bit rate mode : Constant<br>
Bit rate : 2 000 kb/s<br>
Width : 640 pixels<br>
Height : 480 pixels<br>
Display aspect ratio : 4:3<br>
Frame rate mode : Constant<br>
Frame rate : 29.970 (30000/1001) FPS<br>
Color space : YUV<br>
Chroma subsampling : 4:2:0<br>
Bit depth : 8 bits<br>
Scan type : Progressive<br>
Bits/(Pixel*Frame) : 0.217<br>
Stream size : 283 MiB (90%)<br>
Default : Yes<br>
Forced : No<br>
Color range : Limited<br>
<br>
Audio<br>
ID : 2<br>
Format : E-AC-3<br>
Format/Info : Enhanced AC-3<br>
Commercial name : Dolby Digital Plus<br>
Codec ID : A_EAC3<br>
Duration : 20 min 12 s<br>
Bit rate mode : Constant<br>
Bit rate : 224 kb/s<br>
Channel(s) : 2 channels<br>
Channel layout : L R<br>
Sampling rate : 48.0 kHz<br>
Frame rate : 31.250 FPS (1536 SPF)<br>
Compression mode : Lossy<br>
Stream size : 32.4 MiB (10%)<br>
Language : English<br>
Service kind : Complete Main<br>
Default : Yes<br>
Forced : No<br>
<br>
Text<br>
ID : 3<br>
Format : UTF-8<br>
Codec ID : S_TEXT/UTF8<br>
Codec ID/Info : UTF-8 Plain Text<br>
Duration : 19 min 56 s<br>
Bit rate : 99 b/s<br>
Frame rate : 0.358 FPS<br>
Count of elements : 428<br>
Stream size : 14.6 KiB (0%)<br>
Language : English<br>
Default : No<br>
Forced : No<br>
<br>
<span style="text-decoration: underline"><b>Episode 11: Alarming Situation</b></span><br>
General<br>
Complete name : Fatherhood.S01E11.Alarming.Situation.480p.AMZN.WEB-DL.DDP2.0.H.264-Samuel.mkv<br>
Format : Matroska<br>
Format version : Version 4<br>
File size : 308 MiB<br>
Duration : 20 min 12 s<br>
Overall bit rate : 2 128 kb/s<br>
Frame rate : 29.970 FPS<br>
Encoded date : 2022-07-30 17:37:07 UTC<br>
Writing application : mkvmerge v69.0.0 ('Day And Age') 64-bit<br>
Writing library : libebml v1.4.2 + libmatroska v1.6.4<br>
<br>
Video<br>
ID : 1<br>
Format : AVC<br>
Format/Info : Advanced Video Codec<br>
Format profile : Main@L3<br>
Format settings : CABAC / 4 Ref Frames<br>
Format settings, CABAC : Yes<br>
Format settings, Reference frames : 4 frames<br>
Codec ID : V_MPEG4/ISO/AVC<br>
Duration : 20 min 12 s<br>
Bit rate mode : Constant<br>
Bit rate : 1 902 kb/s<br>
Nominal bit rate : 2 000 kb/s<br>
Width : 640 pixels<br>
Height : 480 pixels<br>
Display aspect ratio : 4:3<br>
Frame rate mode : Constant<br>
Frame rate : 29.970 (30000/1001) FPS<br>
Color space : YUV<br>
Chroma subsampling : 4:2:0<br>
Bit depth : 8 bits<br>
Scan type : Progressive<br>
Bits/(Pixel*Frame) : 0.207<br>
Stream size : 275 MiB (89%)<br>
Default : Yes<br>
Forced : No<br>
Color range : Limited<br>
<br>
Audio<br>
ID : 2<br>
Format : E-AC-3<br>
Format/Info : Enhanced AC-3<br>
Commercial name : Dolby Digital Plus<br>
Codec ID : A_EAC3<br>
Duration : 20 min 12 s<br>
Bit rate mode : Constant<br>
Bit rate : 224 kb/s<br>
Channel(s) : 2 channels<br>
Channel layout : L R<br>
Sampling rate : 48.0 kHz<br>
Frame rate : 31.250 FPS (1536 SPF)<br>
Compression mode : Lossy<br>
Stream size : 32.4 MiB (11%)<br>
Language : English<br>
Service kind : Complete Main<br>
Default : Yes<br>
Forced : No<br>
<br>
Text<br>
ID : 3<br>
Format : UTF-8<br>
Codec ID : S_TEXT/UTF8<br>
Codec ID/Info : UTF-8 Plain Text<br>
Duration : 19 min 23 s<br>
Bit rate : 100 b/s<br>
Frame rate : 0.398 FPS<br>
Count of elements : 463<br>
Stream size : 14.2 KiB (0%)<br>
Language : English<br>
Default : No<br>
Forced : No<br>
<br>
<span style="text-decoration: underline"><b>Episode 12: It's A Roy's Life</b></span><br>
General<br>
Complete name : Fatherhood.S01E12.Its.A.Roys.Life.480p.AMZN.WEB-DL.DDP2.0.H.264-Samuel.mkv<br>
Format  : Matroska<br>
Format version : Version 4<br>
File size : 328 MiB<br>
Duration : 20 min 56 s<br>
Overall bit rate : 2 187 kb/s<br>
Frame rate : 29.970 FPS<br>
Encoded date : 2022-07-30 17:56:17 UTC<br>
Writing application : mkvmerge v69.0.0 ('Day And Age') 64-bit<br>
Writing library : libebml v1.4.2 + libmatroska v1.6.4<br>
<br>
Video<br>
ID : 1<br>
Format : AVC<br>
Format/Info : Advanced Video Codec<br>
Format profile : Main@L3<br>
Format settings : CABAC / 4 Ref Frames<br>
Format settings, CABAC : Yes<br>
Format settings, Reference frames : 4 frames<br>
Codec ID : V_MPEG4/ISO/AVC<br>
Duration : 20 min 56 s<br>
Bit rate mode : Constant<br>
Bit rate : 2 000 kb/s<br>
Width : 640 pixels<br>
Height : 480 pixels<br>
Display aspect ratio : 4:3<br>
Frame rate mode : Constant<br>
Frame rate : 29.970 (30000/1001) FPS<br>
Color space : YUV<br>
Chroma subsampling : 4:2:0<br>
Bit depth : 8 bits<br>
Scan type : Progressive<br>
Bits/(Pixel*Frame) : 0.217<br>
Stream size : 294 MiB (90%)<br>
Default : Yes<br>
Forced : No<br>
Color range : Limited<br>
<br>
Audio<br>
ID : 2<br>
Format : E-AC-3<br>
Format/Info : Enhanced AC-3<br>
Commercial name : Dolby Digital Plus<br>
Codec ID : A_EAC3<br>
Duration : 20 min 56 s<br>
Bit rate mode : Constant<br>
Bit rate : 224 kb/s<br>
Channel(s) : 2 channels<br>
Channel layout : L R<br>
Sampling rate : 48.0 kHz<br>
Frame rate : 31.250 FPS (1536 SPF)<br>
Compression mode : Lossy<br>
Stream size : 33.6 MiB (10%)<br>
Language : English<br>
Service kind : Complete Main<br>
Default : Yes<br>
Forced : No<br>
<br>
Text<br>
ID : 3<br>
Format : UTF-8<br>
Codec ID : S_TEXT/UTF8<br>
Codec ID/Info : UTF-8 Plain Text<br>
Duration : 19 min 26 s<br>
Bit rate : 92 b/s<br>
Frame rate : 0.403 FPS<br>
Count of elements : 470<br>
Stream size : 13.1 KiB (0%)<br>
Language : English<br>
Default : No<br>
Forced : No</div>
</div><br>
<b>Screenshots</b><br>
<img src="https://i.imgur.com/q26pfL9.png" class="bbCodeImage LbImage" alt="[​IMG]" data-url="https://i.imgur.com/q26pfL9.png" style=""><br>
<b><a href="https://imgur.com/a/MeVgiEh" target="_blank" class="externalLink" rel="nofollow">More Screenshots</a></b><br>
<br>
<b>Download</b><br>
<div class="bbCodeBlock bbCodeVfcHH HiddenContent">
<div class="attribution type">Hidden Content:</div>
<blockquote>You must reply before you can see the hidden data contained here.</blockquote>
</div></div>
<div class="messageTextEndMarker">&nbsp;</div>
</blockquote>
</article>]]></description>
                <author><![CDATA[Samuel]]></author>
                </item>

                
                <item>
                <title><![CDATA[【Requests】[REQ AUD] - Che Lingo discography (Apple Music Lossless/mp3)]]></title>
                <link><![CDATA[https://sharemania.us/threads/che-lingo-discography-apple-music-lossless-mp3.220020/]]></link>
                <description><![CDATA[<article>
<blockquote class="messageText SelectQuoteContainer ugc baseHtml">
Would love it if someone could grab this discography in mp3! <br>
<a href="https://music.apple.com/us/artist/che-lingo/979525823" target="_blank" class="externalLink" rel="nofollow">https://music.apple.com/us/artist/che-lingo/979525823 </a><br>
<br>
Thanks!!
<div class="messageTextEndMarker">&nbsp;</div>
</blockquote>
</article>]]></description>
                <author><![CDATA[syd009]]></author>
                </item>

                </channel></rss>